<svg viewBox="0 0 206 120.7" xmlns="http://www.w3.org/2000/svg" xmlns:xlink="http://www.w3.org/1999/xlink" id="Camada_1" xml:space="preserve" overflow="hidden"><g><g><g><path d="M37.6 85.6C37.6 88.9 37.9 94.3 38 95.3L33.3 95.3C33 93.5 32.8 89.9 32.8 88.3 30.6 93.1 25.9 96.4 16.4 96.4 4.2 96.5 0 89.1 0 83.1 0 72.5 9.9 69.5 21.7 69.5 27.8 69.5 31.4 69.5 32.8 69.5L32.8 66.7C32.8 61.4 30.5 56.2 20 56.2 10.6 56.2 8.4 60.5 7.4 65.2L2.4 65.2C3 59.4 6.8 51.9 20.1 51.9 33.8 51.9 37.6 58.8 37.6 65.7L37.6 85.6ZM32.8 73.5C31.3 73.5 28.5 73.5 21.9 73.5 10.6 73.5 5 75.9 5 82.8 5 87.8 8.6 92.1 16.8 92.1 30.2 92.1 32.8 83.8 32.8 76L32.8 73.5Z" fill="#2D3D70"/><path d="M82.3 83C82.3 87.1 82.3 91.2 82.4 95.3L77.7 95.3C77.5 94.1 77.4 90.5 77.4 86.9 75.3 92.5 71.2 96.4 61.7 96.4 52.7 96.4 45.8 91.7 45.8 79.4L45.8 53.1 50.7 53.1 50.7 78.5C50.7 85.3 53.5 91.8 62.2 91.8 72.7 91.8 77.4 85.7 77.4 71.9L77.4 53.1 82.3 53.1 82.3 83Z" fill="#2D3D70"/><path d="M92.1 64.6C92.1 60.8 92.1 56.9 92 53.1L96.7 53.1C96.8 54.2 97 58.5 97 63.2 99.9 56.2 106.6 51.9 114.5 51.9L114.5 57C104.7 56.9 97 63.8 97 76.5L97 95.3 92.1 95.3 92.1 64.6Z" fill="#2D3D70"/><path d="M154.6 85.6C154.6 88.9 154.9 94.3 155 95.3L150.3 95.3C150 93.5 149.8 89.9 149.8 88.3 147.6 93.1 142.9 96.4 133.4 96.4 121.3 96.4 117 89.1 117 83 117 72.4 126.9 69.4 138.7 69.4 144.8 69.4 148.4 69.4 149.8 69.4L149.8 66.6C149.8 61.3 147.5 56.1 137 56.1 127.6 56.1 125.4 60.4 124.4 65.1L119.5 65.1C120.1 59.3 123.9 51.8 137.1 51.8 150.8 51.8 154.6 58.7 154.6 65.6L154.6 85.6ZM149.7 73.5C148.2 73.5 145.4 73.5 138.8 73.5 127.5 73.5 121.9 75.9 121.9 82.8 121.9 87.8 125.5 92.1 133.7 92.1 147.1 92.1 149.7 83.8 149.7 76L149.7 73.5Z" fill="#2D3D70"/></g><g><g><path d="M181.9 46.5C173.1 46.5 165.9 39.4 165.8 30.5 165.7 21.6 172.9 14.5 181.8 14.4 190.6 14.4 197.8 21.5 197.9 30.4 198 39.3 190.7 46.5 181.9 46.5ZM181.8 19.5C175.7 19.5 170.8 24.5 170.8 30.6 170.8 36.7 175.8 41.6 181.9 41.6 188 41.6 192.9 36.6 192.9 30.5 192.9 24.4 187.9 19.4 181.8 19.5Z" fill="#F4614D"/><circle cx="174.3" cy="5.8" r="5.8" fill="#F4614D"/><circle cx="202.1" cy="42.6" r="3.8" fill="#F4614D"/></g></g></g><g><path d="M1.4 119 2.1 118.5C2.8 119.5 3.6 119.9 4.7 119.9 6.1 119.9 6.9 119.1 6.9 118 6.9 116.6 6.1 115.9 3.9 115.9L3.5 115.9 3.5 115.1 3.9 115.1C5.9 115.1 6.6 114.5 6.6 113.3 6.6 112.4 6 111.7 4.6 111.7 3.7 111.7 2.9 112.2 2.4 112.8L1.8 112.3C2.5 111.5 3.4 110.9 4.7 110.9 6.7 110.9 7.5 112 7.5 113.2 7.5 114.4 6.8 115.2 5.7 115.4 7.1 115.7 7.8 116.5 7.8 117.9 7.8 119.4 6.6 120.6 4.7 120.6 3.2 120.7 2.1 120.1 1.4 119Z" fill="#F4614D"/><path d="M12.3 116C12.3 113.1 13.8 111 16 111 17 111 17.7 111.3 18.2 111.7L17.7 112.4C17.2 112 16.8 111.8 15.9 111.8 14.2 111.8 13.1 113.6 13.1 116 13.7 115.4 14.6 114.7 15.8 114.7 17.8 114.7 18.7 115.9 18.7 117.6 18.7 119.4 17.4 120.7 15.6 120.7 13.8 120.7 12.3 119.2 12.3 116ZM17.9 117.6C17.9 116.3 17.3 115.4 15.7 115.4 14.7 115.4 13.7 116 13.2 116.8 13.4 119 14.4 119.9 15.7 119.9 17.1 119.9 17.9 119.1 17.9 117.6Z" fill="#F4614D"/><path d="M23.2 115.9C23.2 113 24.4 111 26.6 111 28.8 111 30 112.9 30 115.9 30 118.8 28.8 120.8 26.6 120.8 24.5 120.7 23.2 118.8 23.2 115.9ZM29.2 115.9C29.2 113.3 28.2 111.8 26.7 111.8 25.1 111.8 24.2 113.2 24.2 115.9 24.2 118.5 25.2 120 26.7 120 28.3 119.9 29.2 118.5 29.2 115.9Z" fill="#F4614D"/><path d="M34.7 112.8C34.7 111.8 35.5 111 36.5 111 37.5 111 38.3 111.7 38.3 112.8 38.3 113.8 37.5 114.6 36.5 114.6 35.5 114.5 34.7 113.8 34.7 112.8ZM37.7 112.8C37.7 112.1 37.2 111.6 36.5 111.6 35.8 111.6 35.4 112.1 35.4 112.8 35.4 113.5 35.9 114 36.5 114 37.2 114 37.7 113.5 37.7 112.8Z" fill="#F4614D"/><path d="M47.5 111.2 48.7 111.2 51.8 119.4 51.8 119.4 54.9 111.2 56.1 111.2 56.1 120.6 55.2 120.6 55.2 112.7 55.2 112.7C55.1 113.1 54.8 113.7 54.6 114.3L52.2 120.5 51.4 120.5 49 114.3C48.8 113.7 48.6 113.3 48.4 112.6L48.4 112.6 48.4 120.5 47.6 120.5 47.6 111.2Z" fill="#F4614D"/><path d="M61.8 111.2 62.7 111.2 62.7 120.6 61.8 120.6 61.8 111.2Z" fill="#F4614D"/><path d="M68.4 111.2 69.4 111.2 74.6 118.9 74.6 118.9 74.6 111.2 75.4 111.2 75.4 120.6 74.6 120.6 69.3 112.6 69.3 112.6 69.3 120.6 68.5 120.6 68.5 111.2Z" fill="#F4614D"/><path d="M81.1 111.2 82 111.2 82 120.6 81.1 120.6 81.1 111.2Z" fill="#F4614D"/><path d="M87.7 111.2 88.7 111.2 93.9 118.9 93.9 118.9 93.9 111.2 94.7 111.2 94.7 120.6 93.9 120.6 88.6 112.6 88.6 112.6 88.6 120.6 87.8 120.6 87.8 111.2Z" fill="#F4614D"/><path d="M99.8 115.8C99.8 112.8 101.4 111 103.7 111 105.5 111 106.6 112 107.1 113.9L106.2 114.1C105.8 112.6 105 111.8 103.6 111.8 102 111.8 100.6 113.1 100.6 115.8 100.6 118.4 101.8 119.9 103.6 119.9 105.2 119.9 106.2 118.8 106.2 116.9L103.9 116.9 103.9 116.1 107 116.1 107 120.5 106.2 120.5 106.2 119.1 106.2 119.1C105.8 119.9 105 120.7 103.5 120.7 101.2 120.7 99.8 118.6 99.8 115.8Z" fill="#F4614D"/></g></g></svg>